<?xml version="1.0" encoding="UTF-8" standalone="no"?>
<!-- Created with Inkscape (http://www.inkscape.org/) -->

<svg
   xmlns:dc="http://purl.org/dc/elements/1.1/"
   xmlns:cc="http://creativecommons.org/ns#"
   xmlns:rdf="http://www.w3.org/1999/02/22-rdf-syntax-ns#"
   xmlns:svg="http://www.w3.org/2000/svg"
   xmlns="http://www.w3.org/2000/svg"
   xmlns:sodipodi="http://sodipodi.sourceforge.net/DTD/sodipodi-0.dtd"
   xmlns:inkscape="http://www.inkscape.org/namespaces/inkscape"
   width="210mm"
   height="297mm"
   viewBox="0 0 210 297"
   version="1.1"
   id="svg8"
   inkscape:version="0.92.0 r15299"
   sodipodi:docname="3_field.svg">
  <defs
     id="defs2" />
  <sodipodi:namedview
     id="base"
     pagecolor="#ffffff"
     bordercolor="#666666"
     borderopacity="1.0"
     inkscape:pageopacity="0.0"
     inkscape:pageshadow="2"
     inkscape:zoom="0.98994949"
     inkscape:cx="634.52989"
     inkscape:cy="503.29594"
     inkscape:document-units="mm"
     inkscape:current-layer="layer1"
     showgrid="false"
     inkscape:window-width="1920"
     inkscape:window-height="1017"
     inkscape:window-x="-8"
     inkscape:window-y="-8"
     inkscape:window-maximized="1" />
  <metadata
     id="metadata5">
    <rdf:RDF>
      <cc:Work
         rdf:about="">
        <dc:format>image/svg+xml</dc:format>
        <dc:type
           rdf:resource="http://purl.org/dc/dcmitype/StillImage" />
        <dc:title></dc:title>
      </cc:Work>
    </rdf:RDF>
  </metadata>
  <g
     inkscape:label="Ebene 1"
     inkscape:groupmode="layer"
     id="layer1">
    <path
       style="fill:none;stroke:#000000;stroke-width:2;stroke-linecap:butt;stroke-linejoin:miter;stroke-opacity:1"
       d="m 11.492589,83.718915 182.010541,0.53454"
       id="path4493"
       inkscape:connector-curvature="0" />
    <path
       style="fill:none;stroke:#000000;stroke-width:2;stroke-linecap:butt;stroke-linejoin:miter;stroke-opacity:1"
       d="M 12.027128,209.06832 191.89952,207.99925"
       id="path4495"
       inkscape:connector-curvature="0" />
    <path
       style="fill:none;stroke:#000000;stroke-width:2;stroke-linecap:butt;stroke-linejoin:miter;stroke-opacity:1"
       d="m 42.495855,98.95328 c -0.390774,3.37368 4.516027,9.85315 4.810851,13.09621 -0.357726,-2.65586 2.060285,-10.53372 2.672696,-12.294401 -0.065,3.542631 0.513663,8.970281 0.801808,12.428031 0.313364,-4.59234 3.589733,-8.44539 5.87993,-11.62622 -1.635088,4.2815 -3.968855,8.00965 -3.608138,13.22984 0.663141,-1.51372 7.552307,-6.7505 7.750815,-6.94901 -3.533167,3.04852 -4.422011,5.16257 -4.944486,8.8199"
       id="path4535"
       inkscape:connector-curvature="0"
       sodipodi:nodetypes="cccccccc" />
    <path
       style="fill:none;stroke:#000000;stroke-width:2;stroke-linecap:butt;stroke-linejoin:miter;stroke-opacity:1"
       d="m 42.495856,98.953279 c -1.53882,5.823941 -0.392242,11.097721 1.336347,15.635271"
       id="path4539"
       inkscape:connector-curvature="0" />
    <path
       style="fill:none;stroke:#000000;stroke-width:2;stroke-linecap:butt;stroke-linejoin:miter;stroke-opacity:1"
       d="m 92.11296,117.38508 c -0.390774,3.37368 4.516027,9.85315 4.810851,13.09621 -0.357726,-2.65586 2.060285,-10.53372 2.672696,-12.29441 -0.065,3.54264 0.513663,8.97029 0.801803,12.42804 0.31337,-4.59234 3.58974,-8.44539 5.87994,-11.62622 -1.63509,4.2815 -3.96886,8.00965 -3.60814,13.22984 0.66314,-1.51372 7.5523,-6.7505 7.75081,-6.94901 -3.53316,3.04852 -4.42201,5.16257 -4.94448,8.8199"
       id="path4535-0"
       inkscape:connector-curvature="0"
       sodipodi:nodetypes="cccccccc" />
    <path
       style="fill:none;stroke:#000000;stroke-width:2;stroke-linecap:butt;stroke-linejoin:miter;stroke-opacity:1"
       d="m 92.112961,117.38507 c -1.53882,5.82395 -0.392242,11.09773 1.336347,15.63528"
       id="path4539-0"
       inkscape:connector-curvature="0" />
    <path
       style="fill:none;stroke:#000000;stroke-width:2;stroke-linecap:butt;stroke-linejoin:miter;stroke-opacity:1"
       d="m 125.25438,97.607131 c -0.39077,3.373679 4.51603,9.853149 4.81085,13.096209 -0.35772,-2.65586 2.06029,-10.53372 2.6727,-12.2944 -0.065,3.54263 0.51366,8.97028 0.80181,12.42803 0.31336,-4.59234 3.58973,-8.44539 5.87993,-11.626219 -1.63509,4.281499 -3.96886,8.009649 -3.60814,13.229839 0.66314,-1.51372 7.55231,-6.7505 7.75081,-6.94901 -3.53316,3.04852 -4.42201,5.16257 -4.94448,8.8199"
       id="path4535-08"
       inkscape:connector-curvature="0"
       sodipodi:nodetypes="cccccccc" />
    <path
       style="fill:none;stroke:#000000;stroke-width:2;stroke-linecap:butt;stroke-linejoin:miter;stroke-opacity:1"
       d="m 125.25438,97.60713 c -1.53882,5.82394 -0.39224,11.09772 1.33635,15.63527"
       id="path4539-03"
       inkscape:connector-curvature="0" />
    <path
       style="fill:none;stroke:#000000;stroke-width:2;stroke-linecap:butt;stroke-linejoin:miter;stroke-opacity:1"
       d="m 149.04137,133.42125 c -0.39078,3.37368 4.51603,9.85315 4.81085,13.09621 -0.35773,-2.65586 2.06029,-10.53372 2.6727,-12.2944 -0.065,3.54263 0.51366,8.97028 0.8018,12.42803 0.31337,-4.59234 3.58974,-8.44539 5.87993,-11.62622 -1.63508,4.2815 -3.96885,8.00965 -3.60813,13.22984 0.66314,-1.51372 7.5523,-6.7505 7.75081,-6.94901 -3.53317,3.04852 -4.42201,5.16257 -4.94448,8.8199"
       id="path4535-8"
       inkscape:connector-curvature="0"
       sodipodi:nodetypes="cccccccc" />
    <path
       style="fill:none;stroke:#000000;stroke-width:2;stroke-linecap:butt;stroke-linejoin:miter;stroke-opacity:1"
       d="m 149.04137,133.42125 c -1.53882,5.82394 -0.39224,11.09772 1.33635,15.63527"
       id="path4539-1"
       inkscape:connector-curvature="0" />
    <path
       style="fill:none;stroke:#000000;stroke-width:2;stroke-linecap:butt;stroke-linejoin:miter;stroke-opacity:1"
       d="m 106.81278,154.001 c -0.39077,3.37368 4.51603,9.85315 4.81085,13.09621 -0.35772,-2.65586 2.06029,-10.53372 2.6727,-12.2944 -0.065,3.54263 0.51366,8.97028 0.80181,12.42803 0.31336,-4.59234 3.58973,-8.44539 5.87993,-11.62622 -1.63509,4.2815 -3.96886,8.00965 -3.60814,13.22984 0.66314,-1.51372 7.55231,-6.7505 7.75082,-6.94901 -3.53317,3.04852 -4.42201,5.16257 -4.94449,8.8199"
       id="path4535-2"
       inkscape:connector-curvature="0"
       sodipodi:nodetypes="cccccccc" />
    <path
       style="fill:none;stroke:#000000;stroke-width:2;stroke-linecap:butt;stroke-linejoin:miter;stroke-opacity:1"
       d="m 106.81278,154.001 c -1.53882,5.82394 -0.39224,11.09772 1.33635,15.63527"
       id="path4539-08"
       inkscape:connector-curvature="0" />
    <path
       style="fill:none;stroke:#000000;stroke-width:2;stroke-linecap:butt;stroke-linejoin:miter;stroke-opacity:1"
       d="m 46.67714,139.83572 c -0.390774,3.37368 4.516027,9.85315 4.810851,13.09621 -0.357726,-2.65586 2.060285,-10.53372 2.672696,-12.2944 -0.065,3.54263 0.513663,8.97028 0.801807,12.42803 0.313365,-4.59234 3.589734,-8.44539 5.879931,-11.62622 -1.635088,4.2815 -3.968855,8.00965 -3.608138,13.22984 0.663141,-1.51372 7.552307,-6.7505 7.750815,-6.94901 -3.533167,3.04852 -4.422011,5.16257 -4.944486,8.8199"
       id="path4535-21"
       inkscape:connector-curvature="0"
       sodipodi:nodetypes="cccccccc" />
    <path
       style="fill:none;stroke:#000000;stroke-width:2;stroke-linecap:butt;stroke-linejoin:miter;stroke-opacity:1"
       d="m 46.677141,139.83572 c -1.53882,5.82394 -0.392242,11.09772 1.336347,15.63527"
       id="path4539-2"
       inkscape:connector-curvature="0" />
    <path
       style="fill:none;stroke:#000000;stroke-width:2;stroke-linecap:butt;stroke-linejoin:miter;stroke-opacity:1"
       d="m 58.704269,159.88093 c -0.390774,3.37368 4.516027,9.85315 4.810851,13.09621 -0.357726,-2.65586 2.060285,-10.53372 2.672696,-12.2944 -0.065,3.54263 0.513663,8.97028 0.801807,12.42803 0.313365,-4.59234 3.589734,-8.44539 5.879931,-11.62622 -1.635088,4.2815 -3.968855,8.00965 -3.608138,13.22984 0.663141,-1.51372 7.552307,-6.7505 7.750815,-6.94901 -3.533167,3.04852 -4.422011,5.16257 -4.944486,8.8199"
       id="path4535-7"
       inkscape:connector-curvature="0"
       sodipodi:nodetypes="cccccccc" />
    <path
       style="fill:none;stroke:#000000;stroke-width:2;stroke-linecap:butt;stroke-linejoin:miter;stroke-opacity:1"
       d="m 58.70427,159.88093 c -1.53882,5.82394 -0.392242,11.09772 1.336347,15.63527"
       id="path4539-7"
       inkscape:connector-curvature="0" />
    <path
       style="fill:none;stroke:#000000;stroke-width:2;stroke-linecap:butt;stroke-linejoin:miter;stroke-opacity:1"
       d="m 132.20339,167.09721 c -0.39078,3.37368 4.51603,9.85315 4.81085,13.09621 -0.35773,-2.65586 2.06028,-10.53372 2.6727,-12.2944 -0.065,3.54263 0.51366,8.97028 0.8018,12.42803 0.31337,-4.59234 3.58974,-8.44539 5.87993,-11.62622 -1.63508,4.2815 -3.96885,8.00965 -3.60813,13.22984 0.66314,-1.51372 7.5523,-6.7505 7.75081,-6.94901 -3.53317,3.04852 -4.42201,5.16257 -4.94448,8.8199"
       id="path4535-3"
       inkscape:connector-curvature="0"
       sodipodi:nodetypes="cccccccc" />
    <path
       style="fill:none;stroke:#000000;stroke-width:2;stroke-linecap:butt;stroke-linejoin:miter;stroke-opacity:1"
       d="m 132.20339,167.09721 c -1.53882,5.82394 -0.39224,11.09772 1.33635,15.63527"
       id="path4539-5"
       inkscape:connector-curvature="0" />
    <path
       style="fill:none;stroke:#000000;stroke-width:2;stroke-linecap:butt;stroke-linejoin:miter;stroke-opacity:1"
       d="m 158.93034,174.84802 c -0.39077,3.37368 4.51603,9.85315 4.81085,13.09621 -0.35772,-2.65586 2.06029,-10.53372 2.6727,-12.2944 -0.065,3.54263 0.51366,8.97028 0.80181,12.42803 0.31336,-4.59234 3.58973,-8.44539 5.87993,-11.62622 -1.63509,4.2815 -3.96886,8.00965 -3.60814,13.22984 0.66314,-1.51372 7.55231,-6.7505 7.75081,-6.94901 -3.53316,3.04852 -4.42201,5.16257 -4.94448,8.8199"
       id="path4535-5"
       inkscape:connector-curvature="0"
       sodipodi:nodetypes="cccccccc" />
    <path
       style="fill:none;stroke:#000000;stroke-width:2;stroke-linecap:butt;stroke-linejoin:miter;stroke-opacity:1"
       d="m 158.93034,174.84802 c -1.53882,5.82394 -0.39224,11.09772 1.33635,15.63527"
       id="path4539-07"
       inkscape:connector-curvature="0" />
    <path
       style="fill:none;stroke:#000000;stroke-width:2;stroke-linecap:butt;stroke-linejoin:miter;stroke-opacity:1"
       d="m 154.9213,97.8744 c -0.39078,3.37368 4.51603,9.85315 4.81085,13.09621 -0.35773,-2.65586 2.06028,-10.53372 2.6727,-12.294401 -0.065,3.542631 0.51366,8.970281 0.8018,12.428031 0.31337,-4.59234 3.58974,-8.44539 5.87993,-11.62622 -1.63508,4.2815 -3.96885,8.00965 -3.60813,13.22984 0.66314,-1.51372 7.5523,-6.7505 7.75081,-6.94901 -3.53317,3.04852 -4.42201,5.16257 -4.94448,8.8199"
       id="path4535-4"
       inkscape:connector-curvature="0"
       sodipodi:nodetypes="cccccccc" />
    <path
       style="fill:none;stroke:#000000;stroke-width:2;stroke-linecap:butt;stroke-linejoin:miter;stroke-opacity:1"
       d="m 154.9213,97.874399 c -1.53882,5.823941 -0.39224,11.097721 1.33635,15.635271"
       id="path4539-71"
       inkscape:connector-curvature="0" />
    <path
       style="fill:none;stroke:#000000;stroke-width:2;stroke-linecap:butt;stroke-linejoin:miter;stroke-opacity:1"
       d="m 65.386007,90.925393 c -0.390774,3.37368 4.516027,9.853147 4.810851,13.096207 -0.357726,-2.65586 2.060285,-10.533717 2.672696,-12.294398 -0.065,3.542631 0.513663,8.970278 0.801807,12.428028 0.313365,-4.592337 3.589734,-8.445387 5.879931,-11.626217 -1.635088,4.2815 -3.968855,8.009647 -3.608138,13.229837 0.663141,-1.51372 7.552307,-6.750497 7.750815,-6.949007 -3.533167,3.048517 -4.422011,5.162567 -4.944486,8.819897"
       id="path4535-20"
       inkscape:connector-curvature="0"
       sodipodi:nodetypes="cccccccc" />
    <path
       style="fill:none;stroke:#000000;stroke-width:2;stroke-linecap:butt;stroke-linejoin:miter;stroke-opacity:1"
       d="m 65.386008,90.925392 c -1.53882,5.823941 -0.392242,11.097718 1.336347,15.635268"
       id="path4539-3"
       inkscape:connector-curvature="0" />
    <path
       style="fill:none;stroke:#000000;stroke-width:2;stroke-linecap:butt;stroke-linejoin:miter;stroke-opacity:1"
       d="m 13.535719,185.53881 c -0.390774,3.37368 4.516027,9.85315 4.81085,13.0962 -0.357725,-2.65586 2.060286,-10.53371 2.672697,-12.2944 -0.065,3.54264 0.513663,8.97028 0.801807,12.42804 0.313365,-4.59234 3.589734,-8.44539 5.879931,-11.62622 -1.635088,4.2815 -3.968855,8.00965 -3.608138,13.22984 0.663141,-1.51373 7.552307,-6.7505 7.750815,-6.94901 -3.533167,3.04851 -4.422011,5.16256 -4.944486,8.8199"
       id="path4535-26"
       inkscape:connector-curvature="0"
       sodipodi:nodetypes="cccccccc" />
    <path
       style="fill:none;stroke:#000000;stroke-width:2;stroke-linecap:butt;stroke-linejoin:miter;stroke-opacity:1"
       d="m 13.53572,185.5388 c -1.53882,5.82395 -0.392242,11.09772 1.336347,15.63528"
       id="path4539-29"
       inkscape:connector-curvature="0" />
    <path
       style="fill:none;stroke:#000000;stroke-width:2;stroke-linecap:butt;stroke-linejoin:miter;stroke-opacity:1"
       d="m 26.097386,168.96809 c -0.390774,3.37368 4.516027,9.85316 4.810851,13.09621 -0.357726,-2.65586 2.060286,-10.53372 2.672696,-12.2944 -0.065,3.54263 0.513663,8.97028 0.801808,12.42804 0.313365,-4.59235 3.589734,-8.4454 5.879931,-11.62623 -1.635088,4.2815 -3.968855,8.00965 -3.608138,13.22985 0.663141,-1.51373 7.552307,-6.75051 7.750815,-6.94902 -3.533167,3.04852 -4.422011,5.16257 -4.944486,8.81991"
       id="path4535-41"
       inkscape:connector-curvature="0"
       sodipodi:nodetypes="cccccccc" />
    <path
       style="fill:none;stroke:#000000;stroke-width:2;stroke-linecap:butt;stroke-linejoin:miter;stroke-opacity:1"
       d="m 26.097387,168.96809 c -1.53882,5.82394 -0.392242,11.09772 1.336347,15.63528"
       id="path4539-72"
       inkscape:connector-curvature="0" />
    <path
       style="fill:none;stroke:#000000;stroke-width:2;stroke-linecap:butt;stroke-linejoin:miter;stroke-opacity:1"
       d="m 16.208414,118.18688 c -0.390774,3.37368 4.516027,9.85315 4.810851,13.09621 -0.357726,-2.65586 2.060285,-10.53372 2.672696,-12.2944 -0.065,3.54263 0.513663,8.97028 0.801807,12.42803 0.313365,-4.59234 3.589734,-8.44539 5.879931,-11.62622 -1.635088,4.2815 -3.968855,8.00965 -3.608138,13.22984 0.663141,-1.51372 7.552307,-6.7505 7.750815,-6.94901 -3.533167,3.04852 -4.422011,5.16257 -4.944486,8.8199"
       id="path4535-1"
       inkscape:connector-curvature="0"
       sodipodi:nodetypes="cccccccc" />
    <path
       style="fill:none;stroke:#000000;stroke-width:2;stroke-linecap:butt;stroke-linejoin:miter;stroke-opacity:1"
       d="m 16.208415,118.18688 c -1.53882,5.82394 -0.392242,11.09772 1.336347,15.63527"
       id="path4539-21"
       inkscape:connector-curvature="0" />
    <path
       style="fill:none;stroke:#000000;stroke-width:2;stroke-linecap:butt;stroke-linejoin:miter;stroke-opacity:1"
       d="m 86.23303,176.18437 c -0.390774,3.37368 4.516027,9.85315 4.810851,13.09621 -0.357726,-2.65586 2.060285,-10.53372 2.672696,-12.2944 -0.065,3.54263 0.513663,8.97028 0.801808,12.42803 0.313365,-4.59234 3.589734,-8.44539 5.879935,-11.62622 -1.635092,4.2815 -3.968859,8.00965 -3.608142,13.22984 0.663141,-1.51372 7.552302,-6.7505 7.750812,-6.94901 -3.53316,3.04852 -4.42201,5.16257 -4.944483,8.8199"
       id="path4535-16"
       inkscape:connector-curvature="0"
       sodipodi:nodetypes="cccccccc" />
    <path
       style="fill:none;stroke:#000000;stroke-width:2;stroke-linecap:butt;stroke-linejoin:miter;stroke-opacity:1"
       d="m 86.233031,176.18437 c -1.53882,5.82394 -0.392242,11.09772 1.336347,15.63527"
       id="path4539-27"
       inkscape:connector-curvature="0" />
    <path
       style="fill:none;stroke:#000000;stroke-width:2;stroke-linecap:butt;stroke-linejoin:miter;stroke-opacity:1"
       d="m 70.196858,138.2321 c -0.390774,3.37368 4.516027,9.85315 4.810851,13.09621 -0.357726,-2.65586 2.060286,-10.53372 2.672696,-12.2944 -0.065,3.54263 0.513663,8.97028 0.801808,12.42803 0.313365,-4.59234 3.589734,-8.44539 5.879931,-11.62622 -1.635088,4.2815 -3.968855,8.00965 -3.608138,13.22984 0.663141,-1.51372 7.552307,-6.7505 7.750815,-6.94901 -3.533167,3.04852 -4.422011,5.16257 -4.944486,8.8199"
       id="path4535-04"
       inkscape:connector-curvature="0"
       sodipodi:nodetypes="cccccccc" />
    <path
       style="fill:none;stroke:#000000;stroke-width:2;stroke-linecap:butt;stroke-linejoin:miter;stroke-opacity:1"
       d="m 70.196859,138.2321 c -1.53882,5.82394 -0.392242,11.09772 1.336347,15.63527"
       id="path4539-31"
       inkscape:connector-curvature="0" />
    <path
       style="fill:none;stroke:#000000;stroke-width:2;stroke-linecap:butt;stroke-linejoin:miter;stroke-opacity:1"
       d="m 113.22725,126.47224 c -0.39077,3.37368 4.51603,9.85315 4.81085,13.09621 -0.35772,-2.65586 2.06029,-10.53372 2.6727,-12.2944 -0.065,3.54263 0.51366,8.97028 0.80181,12.42803 0.31336,-4.59234 3.58973,-8.44539 5.87993,-11.62622 -1.63509,4.2815 -3.96886,8.00965 -3.60814,13.22984 0.66314,-1.51372 7.55231,-6.7505 7.75081,-6.94901 -3.53316,3.04852 -4.42201,5.16257 -4.94448,8.8199"
       id="path4535-19"
       inkscape:connector-curvature="0"
       sodipodi:nodetypes="cccccccc" />
    <path
       style="fill:none;stroke:#000000;stroke-width:2;stroke-linecap:butt;stroke-linejoin:miter;stroke-opacity:1"
       d="m 113.22725,126.47224 c -1.53882,5.82394 -0.39224,11.09772 1.33635,15.63527"
       id="path4539-6"
       inkscape:connector-curvature="0" />
  </g>
</svg>
