<?xml version="1.0" encoding="UTF-8" standalone="no"?>
<!-- Created with Inkscape (http://www.inkscape.org/) -->

<svg
   xmlns:dc="http://purl.org/dc/elements/1.1/"
   xmlns:cc="http://creativecommons.org/ns#"
   xmlns:rdf="http://www.w3.org/1999/02/22-rdf-syntax-ns#"
   xmlns:svg="http://www.w3.org/2000/svg"
   xmlns="http://www.w3.org/2000/svg"
   xmlns:sodipodi="http://sodipodi.sourceforge.net/DTD/sodipodi-0.dtd"
   xmlns:inkscape="http://www.inkscape.org/namespaces/inkscape"
   width="210mm"
   height="297mm"
   viewBox="0 0 210 297"
   version="1.1"
   id="svg8"
   inkscape:version="0.92.0 r15299"
   sodipodi:docname="3_recon.svg">
  <defs
     id="defs2" />
  <sodipodi:namedview
     id="base"
     pagecolor="#ffffff"
     bordercolor="#666666"
     borderopacity="1.0"
     inkscape:pageopacity="0.0"
     inkscape:pageshadow="2"
     inkscape:zoom="0.49497475"
     inkscape:cx="719.44878"
     inkscape:cy="478.90305"
     inkscape:document-units="mm"
     inkscape:current-layer="layer1"
     showgrid="false"
     inkscape:window-width="1920"
     inkscape:window-height="1017"
     inkscape:window-x="-8"
     inkscape:window-y="-8"
     inkscape:window-maximized="1" />
  <metadata
     id="metadata5">
    <rdf:RDF>
      <cc:Work
         rdf:about="">
        <dc:format>image/svg+xml</dc:format>
        <dc:type
           rdf:resource="http://purl.org/dc/dcmitype/StillImage" />
        <dc:title></dc:title>
      </cc:Work>
    </rdf:RDF>
  </metadata>
  <g
     inkscape:label="Ebene 1"
     inkscape:groupmode="layer"
     id="layer1">
    <ellipse
       style="opacity:1;fill:#ffffff;fill-opacity:1;stroke:#000000;stroke-width:2;stroke-opacity:1"
       id="path5036"
       cx="283.48215"
       cy="35.440475"
       rx="25.324404"
       ry="26.080357" />
    <path
       style="fill:none;stroke:#000000;stroke-width:2;stroke-linecap:butt;stroke-linejoin:miter;stroke-opacity:1"
       d="m 281.59226,61.142856 c 3.08021,32.361266 15.75929,42.325614 -1.88988,72.193454 16.33595,-0.18745 39.35889,0.60933 52.53869,4.15774 -4.75969,15.84052 -2.78814,43.50261 -2.26786,54.42857"
       id="path5040"
       inkscape:connector-curvature="0" />
    <path
       style="fill:none;stroke:#000000;stroke-width:2;stroke-linecap:butt;stroke-linejoin:miter;stroke-opacity:1"
       d="m 279.70238,133.33631 c 4.37192,20.0714 7.7204,45.67113 9.82738,64.63392 -18.35815,-6.62202 -39.81895,-13.99583 -57.45238,-13.22916"
       id="path5046"
       inkscape:connector-curvature="0" />
    <path
       style="fill:none;stroke:#000000;stroke-width:2.00995898;stroke-linecap:butt;stroke-linejoin:miter;stroke-opacity:1"
       d="m 282.34821,70.59226 c 11.10776,10.024212 20.11017,22.960052 33.48591,29.58573 1.89504,-11.079878 10.0532,-24.329306 12.39275,-31.076771"
       id="path5048"
       inkscape:connector-curvature="0"
       inkscape:transform-center-x="5.9100948"
       inkscape:transform-center-y="3.5931848" />
    <path
       style="fill:none;stroke:#000000;stroke-width:2;stroke-linecap:butt;stroke-linejoin:miter;stroke-opacity:1"
       d="m 311.26339,77.017856 c -6.03815,9.759486 -15.1184,20.360976 -32.74895,23.123104 0.34181,-6.670248 -0.78233,-20.637691 3.83377,-29.5487"
       id="path5052"
       inkscape:connector-curvature="0"
       sodipodi:nodetypes="ccc" />
    <path
       style="fill:#ffffff;stroke:#000000;stroke-width:2;stroke-linecap:butt;stroke-linejoin:miter;stroke-opacity:1"
       d="M 253.65358,42.627941 C 251.65483,1.4750149 292.86759,-7.4763131 313.27743,22.909621 Z"
       id="path5072"
       inkscape:connector-curvature="0"
       sodipodi:nodetypes="cc" />
    <path
       style="fill:none;stroke:#000000;stroke-width:2;stroke-linecap:butt;stroke-linejoin:miter;stroke-opacity:1"
       d="m 317.12202,71.348214 c -0.20115,5.572281 -2.66632,5.517626 -5.85863,5.669642"
       id="path5092"
       inkscape:connector-curvature="0" />
    <path
       style="fill:none;stroke:#000000;stroke-width:2;stroke-linecap:butt;stroke-linejoin:miter;stroke-opacity:1"
       d="m 312.01934,71.5372 c -0.20348,3.640159 -0.0828,7.317936 -0.66199,10.917472 -1.63394,2.41273 -4.34186,0.43635 -5.19664,0.23283 -1.22619,-4.70782 0.63215,-9.507527 1.50143,-11.369683"
       id="path5096"
       inkscape:connector-curvature="0" />
    <path
       style="opacity:1;fill:#ffffff;fill-opacity:1;stroke:#000000;stroke-width:2;stroke-opacity:1"
       d="m 287.47627,80.665082 c 0.26731,-0.998026 0.32806,-3.383016 0.12504,-4.908627 -0.2812,-2.113093 -0.94279,-4.223055 -2.08713,-6.656295 l -0.89811,-1.909686 2.57249,-0.125272 c 2.50236,-0.121857 29.1734,-1.533163 46.8902,-2.48121 29.03449,-1.553665 40.82233,-2.173102 41.35404,-2.173102 0.58487,0 0.60132,0.02281 0.60132,0.83348 v 0.833482 l -1.55915,0.118576 c -0.85753,0.06522 -9.12813,0.48392 -18.37909,0.930452 -14.8413,0.716373 -16.89703,0.851998 -17.47526,1.152925 -0.36043,0.187576 -1.34124,0.997931 -2.17957,1.800788 l -1.52424,1.459743 -1.41121,0.123675 c -0.77617,0.06802 -4.30273,0.294571 -7.83681,0.503451 -18.47508,1.091952 -17.85043,1.043266 -18.32336,1.428168 -0.24271,0.197536 -1.10931,0.904738 -1.92578,1.571557 -5.03171,4.109459 -11.31913,7.006775 -16.75937,7.722925 -1.2536,0.16502 -1.28679,0.15871 -1.18401,-0.22503 z"
       id="path5101"
       inkscape:connector-curvature="0" />
    <ellipse
       style="opacity:1;fill:#ffffff;fill-opacity:1;stroke:#000000;stroke-width:2;stroke-opacity:1"
       id="path5103"
       cx="54.995537"
       cy="245.97321"
       rx="23.245535"
       ry="22.300594" />
    <ellipse
       style="opacity:1;fill:#ffffff;fill-opacity:1;stroke:#000000;stroke-width:2;stroke-opacity:1"
       id="path5103-2"
       cx="143.63095"
       cy="244.08333"
       rx="23.245535"
       ry="22.300594" />
    <path
       style="fill:none;stroke:#000000;stroke-width:2;stroke-linecap:butt;stroke-linejoin:miter;stroke-opacity:1"
       d="m 25.324405,244.83929 c 16.632635,-43.26781 54.574543,-25.97547 60.098214,3.02381 l 29.482151,-0.37798 c -0.0433,-41.64747 58.40346,-38.54162 56.31844,-0.37797 l 27.97025,-0.37798 0.37797,-61.61012 -123.220235,0.37797 19.275292,-50.00158 -13.227678,0.10872 -18.142856,50.64882 -61.6101198,3.77976 -0.7559523,55.94048 z"
       id="path5122"
       inkscape:connector-curvature="0"
       sodipodi:nodetypes="ccccccccccccc" />
    <path
       style="fill:none;stroke:#000000;stroke-width:2;stroke-linecap:butt;stroke-linejoin:miter;stroke-opacity:1"
       d="m 95.626487,135.49544 c -2.27316,-8.34784 -0.43851,-16.4998 2.35416,-22.28561"
       id="path5124"
       inkscape:connector-curvature="0" />
    <path
       style="fill:none;stroke:#000000;stroke-width:0.26458332px;stroke-linecap:butt;stroke-linejoin:miter;stroke-opacity:1"
       d="m 231.56011,78.5683 c 4.00319,-12.00959 0.63367,-34.596725 -21.54464,-37.419644 2.60615,11.46706 -0.1637,29.653734 -16.25298,29.86012 -9.42862,-4.72704 -7.18154,-17.176777 -7.18154,-26.458333 -11.35906,9.665502 -9.82739,23.391576 -9.82739,38.553571 17.97618,4.762995 40.28182,-0.385792 54.80655,-4.535714 z"
       id="path5128"
       inkscape:connector-curvature="0" />
    <path
       style="opacity:1;fill:#ffffff;fill-opacity:1;stroke:#000000;stroke-width:2;stroke-opacity:1"
       d="m 133.36564,117.45627 c -0.42879,-0.94501 -0.78039,-3.29982 -0.72365,-4.84649 0.0787,-2.14228 0.60051,-4.34493 1.64648,-6.94874 l 0.82091,-2.04354 -3.01025,0.30517 c -2.9282,0.29686 -34.151177,3.34933 -54.89296,5.36652 -33.991829,3.3058 -47.790989,4.65919 -48.410133,4.74794 -0.681045,0.0976 -0.697514,0.12299 -0.602049,0.92684 l 0.09815,0.82648 1.829499,-0.14267 c 1.006221,-0.0785 10.686132,-1.04381 21.51089,-2.14519 17.366133,-1.76694 19.775883,-1.9756 20.484633,-1.77372 0.44179,0.12584 1.67931,0.76567 2.75004,1.42184 l 1.94678,1.19305 1.65783,-0.11292 c 0.911813,-0.0621 5.044953,-0.42611 9.184773,-0.80889 21.641697,-2.00107 20.908597,-1.94508 21.504617,-1.64236 0.30589,0.15536 1.39827,0.71197 2.42752,1.2369 6.34306,3.23503 14.00555,5.05851 20.42472,4.86056 1.47917,-0.0456 1.51708,-0.0574 1.3522,-0.42078 z"
       id="path5101-6"
       inkscape:connector-curvature="0" />
    <ellipse
       style="opacity:1;fill:#ffffff;fill-opacity:1;stroke:#000000;stroke-width:2;stroke-opacity:1"
       id="path5036-3"
       cx="-106.74699"
       cy="167.74007"
       rx="15.324275"
       ry="15.689003"
       transform="scale(-1,1)" />
    <path
       style="fill:#ffffff;stroke:#000000;stroke-width:2;stroke-linecap:butt;stroke-linejoin:miter;stroke-opacity:1"
       d="m 125.55275,171.68579 c 1.20948,-24.75611 -23.72914,-30.14091 -36.079506,-11.86183 z"
       id="path5072-1"
       inkscape:connector-curvature="0"
       sodipodi:nodetypes="ccc" />
    <ellipse
       style="opacity:1;fill:#ffffff;fill-opacity:1;stroke:#000000;stroke-width:2;stroke-opacity:1"
       id="path5036-3-9"
       cx="-160.44153"
       cy="97.207191"
       rx="15.324276"
       ry="15.689003"
       transform="scale(-1,1)" />
    <path
       style="fill:none;stroke:#000000;stroke-width:2;stroke-linecap:butt;stroke-linejoin:miter;stroke-opacity:1"
       d="m 161.57247,112.65057 c -1.8498,22.51586 -9.46412,29.44873 1.13494,50.22975"
       id="path5040-7-4"
       inkscape:connector-curvature="0"
       sodipodi:nodetypes="cc" />
    <path
       style="fill:none;stroke:#000000;stroke-width:2;stroke-linecap:butt;stroke-linejoin:miter;stroke-opacity:1"
       d="m 161.12768,118.35323 c -8.6715,6.0302 -15.69938,13.81194 -26.14142,17.79771 -1.47941,-6.66526 -7.84823,-14.63564 -9.67465,-18.69467"
       id="path5048-1-6"
       inkscape:connector-curvature="0"
       inkscape:transform-center-x="-4.6138338"
       inkscape:transform-center-y="2.1615296"
       sodipodi:nodetypes="ccc" />
    <path
       style="fill:none;stroke:#000000;stroke-width:2;stroke-linecap:butt;stroke-linejoin:miter;stroke-opacity:1"
       d="m 133.36564,117.45627 c 3.65379,6.50123 6.56215,17.60679 17.23074,19.44677 -0.20684,-4.44336 13.3246,-12.61378 10.5313,-18.54981"
       id="path5052-1-0"
       inkscape:connector-curvature="0"
       sodipodi:nodetypes="ccc" />
    <path
       style="fill:#ffffff;stroke:#000000;stroke-width:2;stroke-linecap:butt;stroke-linejoin:miter;stroke-opacity:1"
       d="M 179.2473,101.15292 C 180.45677,76.396809 155.51815,71.012009 143.16778,89.29109 Z"
       id="path5072-1-7"
       inkscape:connector-curvature="0"
       sodipodi:nodetypes="ccc" />
    <path
       style="fill:none;stroke:#000000;stroke-width:2;stroke-linecap:butt;stroke-linejoin:miter;stroke-opacity:1"
       d="m 134.9375,183.98512 1.13393,-15.11905 c 14.16311,-7.5487 54.80655,-6.80357 54.80655,-6.80357 l 0,22.67857 z"
       id="path5229"
       inkscape:connector-curvature="0"
       sodipodi:nodetypes="ccccc" />
  </g>
</svg>
