<?xml version="1.0" encoding="UTF-8" standalone="no"?>
<!-- Created with Inkscape (http://www.inkscape.org/) -->

<svg
   xmlns:dc="http://purl.org/dc/elements/1.1/"
   xmlns:cc="http://creativecommons.org/ns#"
   xmlns:rdf="http://www.w3.org/1999/02/22-rdf-syntax-ns#"
   xmlns:svg="http://www.w3.org/2000/svg"
   xmlns="http://www.w3.org/2000/svg"
   xmlns:sodipodi="http://sodipodi.sourceforge.net/DTD/sodipodi-0.dtd"
   xmlns:inkscape="http://www.inkscape.org/namespaces/inkscape"
   width="210mm"
   height="297mm"
   viewBox="0 0 210 297"
   version="1.1"
   id="svg8"
   inkscape:version="0.92.0 r15299"
   sodipodi:docname="6_bigtank.svg">
  <defs
     id="defs2" />
  <sodipodi:namedview
     id="base"
     pagecolor="#ffffff"
     bordercolor="#666666"
     borderopacity="1.0"
     inkscape:pageopacity="0.0"
     inkscape:pageshadow="2"
     inkscape:zoom="0.49497475"
     inkscape:cx="719.44878"
     inkscape:cy="307.56675"
     inkscape:document-units="mm"
     inkscape:current-layer="layer1"
     showgrid="false"
     inkscape:window-width="1920"
     inkscape:window-height="1017"
     inkscape:window-x="-8"
     inkscape:window-y="-8"
     inkscape:window-maximized="1" />
  <metadata
     id="metadata5">
    <rdf:RDF>
      <cc:Work
         rdf:about="">
        <dc:format>image/svg+xml</dc:format>
        <dc:type
           rdf:resource="http://purl.org/dc/dcmitype/StillImage" />
        <dc:title></dc:title>
      </cc:Work>
    </rdf:RDF>
  </metadata>
  <g
     inkscape:label="Ebene 1"
     inkscape:groupmode="layer"
     id="layer1">
    <ellipse
       style="opacity:1;fill:#ffffff;fill-opacity:1;stroke:#000000;stroke-width:2;stroke-opacity:1"
       id="path5036"
       cx="283.48215"
       cy="35.440475"
       rx="25.324404"
       ry="26.080357" />
    <path
       style="fill:none;stroke:#000000;stroke-width:2;stroke-linecap:butt;stroke-linejoin:miter;stroke-opacity:1"
       d="m 281.59226,61.142856 c 3.08021,32.361266 15.75929,42.325614 -1.88988,72.193454 16.33595,-0.18745 39.35889,0.60933 52.53869,4.15774 -4.75969,15.84052 -2.78814,43.50261 -2.26786,54.42857"
       id="path5040"
       inkscape:connector-curvature="0" />
    <path
       style="fill:none;stroke:#000000;stroke-width:2;stroke-linecap:butt;stroke-linejoin:miter;stroke-opacity:1"
       d="m 279.70238,133.33631 c 4.37192,20.0714 7.7204,45.67113 9.82738,64.63392 -18.35815,-6.62202 -39.81895,-13.99583 -57.45238,-13.22916"
       id="path5046"
       inkscape:connector-curvature="0" />
    <path
       style="fill:none;stroke:#000000;stroke-width:2.00995898;stroke-linecap:butt;stroke-linejoin:miter;stroke-opacity:1"
       d="m 282.34821,70.59226 c 11.10776,10.024212 20.11017,22.960052 33.48591,29.58573 1.89504,-11.079878 10.0532,-24.329306 12.39275,-31.076771"
       id="path5048"
       inkscape:connector-curvature="0"
       inkscape:transform-center-x="5.9100948"
       inkscape:transform-center-y="3.5931848" />
    <path
       style="fill:none;stroke:#000000;stroke-width:2;stroke-linecap:butt;stroke-linejoin:miter;stroke-opacity:1"
       d="m 311.26339,77.017856 c -6.03815,9.759486 -15.1184,20.360976 -32.74895,23.123104 0.34181,-6.670248 -0.78233,-20.637691 3.83377,-29.5487"
       id="path5052"
       inkscape:connector-curvature="0"
       sodipodi:nodetypes="ccc" />
    <path
       style="fill:#ffffff;stroke:#000000;stroke-width:2;stroke-linecap:butt;stroke-linejoin:miter;stroke-opacity:1"
       d="M 253.65358,42.627941 C 251.65483,1.4750149 292.86759,-7.4763131 313.27743,22.909621 Z"
       id="path5072"
       inkscape:connector-curvature="0"
       sodipodi:nodetypes="cc" />
    <path
       style="fill:none;stroke:#000000;stroke-width:2;stroke-linecap:butt;stroke-linejoin:miter;stroke-opacity:1"
       d="m 317.12202,71.348214 c -0.20115,5.572281 -2.66632,5.517626 -5.85863,5.669642"
       id="path5092"
       inkscape:connector-curvature="0" />
    <path
       style="fill:none;stroke:#000000;stroke-width:2;stroke-linecap:butt;stroke-linejoin:miter;stroke-opacity:1"
       d="m 312.01934,71.5372 c -0.20348,3.640159 -0.0828,7.317936 -0.66199,10.917472 -1.63394,2.41273 -4.34186,0.43635 -5.19664,0.23283 -1.22619,-4.70782 0.63215,-9.507527 1.50143,-11.369683"
       id="path5096"
       inkscape:connector-curvature="0" />
    <path
       style="opacity:1;fill:#ffffff;fill-opacity:1;stroke:#000000;stroke-width:2;stroke-opacity:1"
       d="m 287.47627,80.665082 c 0.26731,-0.998026 0.32806,-3.383016 0.12504,-4.908627 -0.2812,-2.113093 -0.94279,-4.223055 -2.08713,-6.656295 l -0.89811,-1.909686 2.57249,-0.125272 c 2.50236,-0.121857 29.1734,-1.533163 46.8902,-2.48121 29.03449,-1.553665 40.82233,-2.173102 41.35404,-2.173102 0.58487,0 0.60132,0.02281 0.60132,0.83348 v 0.833482 l -1.55915,0.118576 c -0.85753,0.06522 -9.12813,0.48392 -18.37909,0.930452 -14.8413,0.716373 -16.89703,0.851998 -17.47526,1.152925 -0.36043,0.187576 -1.34124,0.997931 -2.17957,1.800788 l -1.52424,1.459743 -1.41121,0.123675 c -0.77617,0.06802 -4.30273,0.294571 -7.83681,0.503451 -18.47508,1.091952 -17.85043,1.043266 -18.32336,1.428168 -0.24271,0.197536 -1.10931,0.904738 -1.92578,1.571557 -5.03171,4.109459 -11.31913,7.006775 -16.75937,7.722925 -1.2536,0.16502 -1.28679,0.15871 -1.18401,-0.22503 z"
       id="path5101"
       inkscape:connector-curvature="0" />
    <ellipse
       style="opacity:1;fill:#ffffff;fill-opacity:1;stroke:#000000;stroke-width:2;stroke-opacity:1"
       id="path5103"
       cx="409.92947"
       cy="172.74135"
       rx="23.245535"
       ry="22.300594" />
    <ellipse
       style="opacity:1;fill:#ffffff;fill-opacity:1;stroke:#000000;stroke-width:2;stroke-opacity:1"
       id="path5103-2"
       cx="498.56488"
       cy="170.85147"
       rx="23.245535"
       ry="22.300594" />
    <path
       style="fill:none;stroke:#000000;stroke-width:2;stroke-linecap:butt;stroke-linejoin:miter;stroke-opacity:1"
       d="m 380.25834,171.60744 c 16.63263,-43.26781 54.57454,-25.97547 60.09821,3.02381 l 29.48215,-0.37798 c -0.0433,-41.64747 58.40346,-38.54162 56.31844,-0.37797 l 30.64295,-0.37798 0.37797,-123.082111 -125.86105,0.0885 -0.0319,61.761441 v 0 l 0.0319,-50.001581 -41.55824,0.64326 -20.28102,52.786981 -11.89798,1.10706 -0.75596,55.94048 z"
       id="path5122"
       inkscape:connector-curvature="0"
       sodipodi:nodetypes="ccccccccccccccc" />
    <path
       style="fill:none;stroke:#000000;stroke-width:2;stroke-linecap:butt;stroke-linejoin:miter;stroke-opacity:1"
       d="m 357.01608,260.57758 c -2.27316,-8.34784 -0.43851,-16.4998 2.35416,-22.28561"
       id="path5124"
       inkscape:connector-curvature="0" />
    <path
       style="opacity:1;fill:#ffffff;fill-opacity:1;stroke:#000000;stroke-width:2;stroke-opacity:1"
       d="m 394.75524,242.53841 c -0.42879,-0.94501 -0.78039,-3.29982 -0.72365,-4.84649 0.0787,-2.14228 0.60051,-4.34493 1.64648,-6.94874 l 0.82091,-2.04354 -3.01025,0.30517 c -2.9282,0.29686 -34.15118,3.34933 -54.89296,5.36652 -33.99183,3.3058 -47.79099,4.65919 -48.41014,4.74794 -0.68104,0.0976 -0.69751,0.12299 -0.60204,0.92684 l 0.0981,0.82648 1.82949,-0.14267 c 1.00623,-0.0785 10.68614,-1.04381 21.51089,-2.14519 17.36614,-1.76694 19.77589,-1.9756 20.48464,-1.77372 0.44179,0.12584 1.67931,0.76567 2.75004,1.42184 l 1.94678,1.19305 1.65783,-0.11292 c 0.91181,-0.0621 5.04495,-0.42611 9.18477,-0.80889 21.6417,-2.00107 20.9086,-1.94508 21.50462,-1.64236 0.30589,0.15536 1.39827,0.71197 2.42752,1.2369 6.34306,3.23503 14.00555,5.05851 20.42472,4.86056 1.47917,-0.0456 1.51708,-0.0574 1.3522,-0.42078 z"
       id="path5101-6"
       inkscape:connector-curvature="0" />
    <ellipse
       style="opacity:1;fill:#ffffff;fill-opacity:1;stroke:#000000;stroke-width:1.67348099;stroke-opacity:1"
       id="path5036-3"
       cx="-403.77414"
       cy="98.560661"
       rx="12.556384"
       ry="13.405787"
       transform="scale(-1,1)" />
    <path
       style="fill:#ffffff;stroke:#000000;stroke-width:1.67348099;stroke-linecap:butt;stroke-linejoin:miter;stroke-opacity:1"
       d="M 419.18316,101.93217 C 420.17418,80.778809 399.74001,76.177659 389.62038,91.796589 Z"
       id="path5072-1"
       inkscape:connector-curvature="0"
       sodipodi:nodetypes="ccc" />
    <ellipse
       style="opacity:1;fill:#ffffff;fill-opacity:1;stroke:#000000;stroke-width:2;stroke-opacity:1"
       id="path5036-3-9"
       cx="-421.83112"
       cy="222.28934"
       rx="15.324276"
       ry="15.689003"
       transform="scale(-1,1)" />
    <path
       style="fill:none;stroke:#000000;stroke-width:2;stroke-linecap:butt;stroke-linejoin:miter;stroke-opacity:1"
       d="m 422.96207,237.73271 c -1.8498,22.51586 -9.46412,29.44873 1.13494,50.22975"
       id="path5040-7-4"
       inkscape:connector-curvature="0"
       sodipodi:nodetypes="cc" />
    <path
       style="fill:none;stroke:#000000;stroke-width:2;stroke-linecap:butt;stroke-linejoin:miter;stroke-opacity:1"
       d="m 422.51728,243.43537 c -8.6715,6.0302 -15.69938,13.81194 -26.14142,17.79771 -1.47941,-6.66526 -7.84823,-14.63564 -9.67465,-18.69467"
       id="path5048-1-6"
       inkscape:connector-curvature="0"
       inkscape:transform-center-x="-4.6138338"
       inkscape:transform-center-y="2.1615296"
       sodipodi:nodetypes="ccc" />
    <path
       style="fill:none;stroke:#000000;stroke-width:2;stroke-linecap:butt;stroke-linejoin:miter;stroke-opacity:1"
       d="m 394.75524,242.53841 c 3.65379,6.50123 6.56215,17.60679 17.23074,19.44677 -0.20684,-4.44336 13.3246,-12.61378 10.5313,-18.54981"
       id="path5052-1-0"
       inkscape:connector-curvature="0"
       sodipodi:nodetypes="ccc" />
    <path
       style="fill:#ffffff;stroke:#000000;stroke-width:2;stroke-linecap:butt;stroke-linejoin:miter;stroke-opacity:1"
       d="m 440.6369,226.23506 c 1.20947,-24.75611 -23.72915,-30.14091 -36.07952,-11.86183 z"
       id="path5072-1-7"
       inkscape:connector-curvature="0"
       sodipodi:nodetypes="ccc" />
    <path
       style="fill:none;stroke:#000000;stroke-width:2;stroke-linecap:butt;stroke-linejoin:miter;stroke-opacity:1"
       d="m 396.3271,309.06726 1.13393,-15.11905 c 14.16311,-7.5487 54.80655,-6.80357 54.80655,-6.80357 v 22.67857 z"
       id="path5229"
       inkscape:connector-curvature="0"
       sodipodi:nodetypes="ccccc" />
    <path
       style="fill:none;stroke:#000000;stroke-width:2;stroke-linecap:butt;stroke-linejoin:miter;stroke-opacity:1"
       d="m 380.05727,113.6531 15.50163,-40.090431 24.5888,0.53454 0.53454,39.555901 z"
       id="path5233"
       inkscape:connector-curvature="0"
       sodipodi:nodetypes="ccccc" />
    <path
       style="fill:none;stroke:#000000;stroke-width:2;stroke-linecap:butt;stroke-linejoin:miter;stroke-opacity:1"
       d="m 84.45717,158.55438 c -24.343015,0.0824 -45.567259,86.70605 -26.192415,84.45717 L 183.3469,242.47702 c 16.74174,-2.35512 22.06613,-10.08272 1.06907,-35.81411 l -47.61724,-48.46593 z"
       id="path5235"
       inkscape:connector-curvature="0"
       sodipodi:nodetypes="cccccc" />
    <path
       style="fill:none;stroke:#000000;stroke-width:2;stroke-linecap:butt;stroke-linejoin:miter;stroke-opacity:1"
       d="m 58.799294,189.55765 c -1.015082,-7.39897 -2.765651,-18.17435 -1.603617,-23.51972 l -52.9193639,2.13816 0.5345389,-42.76312 52.919366,-1e-5 c -0.193133,-14.13881 -0.784329,-18.97238 6.949008,-26.726949 l 59.333844,1.069078 c 32.67647,39.659341 55.91271,59.760591 60.4029,106.907821"
       id="path5255"
       inkscape:connector-curvature="0"
       sodipodi:nodetypes="cccccccc" />
  </g>
</svg>
